<svg height="512" viewBox="0 0 512 512" width="512" xmlns="http://www.w3.org/2000/svg"><g id="Filled_outline" data-name="Filled outline"><path d="m205.334 360h-173.334a53.334 53.334 0 0 1 0 64h173.334a53.334 53.334 0 0 0 0-64z" fill="#ead7bc"/><path d="m437.334 360h-232a53.334 53.334 0 0 1 0 64h232a53.334 53.334 0 0 0 0-64z" fill="#f35244"/><path d="m445.54 376h-232a53.071 53.071 0 0 0 -8.21-16h232a53.071 53.071 0 0 1 8.21 16z" fill="#e64c3f"/><path d="m306.667 486.768h173.333a53.334 53.334 0 0 1 0-64h-173.333a53.334 53.334 0 0 0 0 64z" fill="#ead7bc"/><path d="m74.667 486.768h232a53.334 53.334 0 0 1 0-64h-232a53.334 53.334 0 0 0 0 64z" fill="#ffb531"/><path d="m306.67 422.77a53.351 53.351 0 0 0 -8.59 17.23h-232a53.351 53.351 0 0 1 8.59-17.23z" fill="#ffa912"/><rect fill="#348fd9" height="320" rx="24" width="368" x="72" y="24"/><path d="m416 24h-111.816l-124.494 320h236.31a24 24 0 0 0 24-24v-272a24 24 0 0 0 -24-24z" fill="#3086cd"/><path d="m304 320a27.315 27.315 0 0 1 -19.314 8h-57.372a27.315 27.315 0 0 1 -19.314-8 27.315 27.315 0 0 0 -19.314-8h-148.686v24a24 24 0 0 0 24 24h384a24 24 0 0 0 24-24v-24h-148.686a27.315 27.315 0 0 0 -19.314 8z" fill="#ebebe9"/><path d="m408 312v24a24 24 0 0 1 -24 24h64a24 24 0 0 0 24-24v-24z" fill="#e0e0de"/><path d="m336 136v128a207.584 207.584 0 0 0 -77.14 14.86l-2.86 1.14-2.86-1.14a207.584 207.584 0 0 0 -77.14-14.86v-128z" fill="#3b495e"/><path d="m336 136v44.44l-80 35.56-80-35.56v-44.44z" fill="#374357"/><path d="m112 136 144-64 144 64-144 64z" fill="#4d5e78"/><path d="m368 264h32l-16-48z" fill="#ffb531"/><circle cx="256" cy="136" fill="#556a8a" r="16"/><path d="m96 48h16v16h-16z"/><path d="m128 48h16v16h-16z"/><path d="m160 48h16v16h-16z"/><path d="m96 160h16v16h-16z"/><path d="m96 192h16v80h-16z"/><path d="m24.845 427.578a8 8 0 0 0 7.155 4.422h28.92a61.713 61.713 0 0 0 7.347 60.8 8 8 0 0 0 6.4 3.2h405.333a8 8 0 0 0 6.4-12.8 45.569 45.569 0 0 1 0-54.4 8 8 0 0 0 -6.4-12.8h-28.92a61.949 61.949 0 0 0 -.064-48.146 32.041 32.041 0 0 0 28.984-31.854v-24a8 8 0 0 0 -8-8h-24v-256a32.036 32.036 0 0 0 -32-32h-320a32.036 32.036 0 0 0 -32 32v256h-24a8 8 0 0 0 -8 8v24h16v-16h140.687a19.187 19.187 0 0 1 13.656 5.657 35.082 35.082 0 0 0 24.971 10.343h57.373a35.082 35.082 0 0 0 24.97-10.343 19.187 19.187 0 0 1 13.657-5.657h140.686v16a16.019 16.019 0 0 1 -16 16h-416a8 8 0 0 0 -6.4 12.8 45.569 45.569 0 0 1 0 54.4 8 8 0 0 0 -.755 8.378zm273.5-113.235a19.187 19.187 0 0 1 -13.658 5.657h-57.373a19.187 19.187 0 0 1 -13.657-5.657 35.082 35.082 0 0 0 -24.97-10.343h-108.687v-256a16.019 16.019 0 0 1 16-16h320a16.019 16.019 0 0 1 16 16v256h-108.686a35.082 35.082 0 0 0 -24.971 10.343zm-248.291 85.657h157.178a45.135 45.135 0 0 1 -6.112 16h-155.369a61.5 61.5 0 0 0 4.303-16zm335.066 16h-110.04a61.954 61.954 0 0 0 0-48h110.04a45.64 45.64 0 0 1 0 48zm-92.2 64h-38.04a45.644 45.644 0 0 1 0-48h38.04a61.954 61.954 0 0 0 0 48zm-166.04-48h110.04a61.954 61.954 0 0 0 0 48h-110.04a45.644 45.644 0 0 1 0-48zm130.24-16h-38.04a61.954 61.954 0 0 0 0-48h38.04a45.64 45.64 0 0 1 0 48zm-178.243 16h30.043a61.954 61.954 0 0 0 0 48h-30.043a45.644 45.644 0 0 1 0-48zm232 48a45.114 45.114 0 0 1 -6.111-16h157.181a61.456 61.456 0 0 0 4.3 16zm151.067-32h-157.175a45.114 45.114 0 0 1 6.111-16h155.369a61.456 61.456 0 0 0 -4.302 16zm-28.823-32h-30.041a61.954 61.954 0 0 0 0-48h30.044a45.649 45.649 0 0 1 0 48zm-369.121-48h137.12a45.135 45.135 0 0 1 6.112 16h-157.178a61.5 61.5 0 0 0 -4.3-16z"/><path d="m392 214.7v-66.39l11.249-5a8 8 0 0 0 0-14.622l-144-64a8.01 8.01 0 0 0 -6.5 0l-144 64a8 8 0 0 0 0 14.622l59.251 26.333v94.357a8 8 0 0 0 8 8 198.714 198.714 0 0 1 74.178 14.291l2.86 1.14a8 8 0 0 0 5.925 0l2.87-1.144a198.691 198.691 0 0 1 74.167-14.287 8 8 0 0 0 8-8v-94.357l32-14.222v59.279l-15.589 46.77a8 8 0 0 0 7.589 10.53h32a8 8 0 0 0 7.589-10.53zm-136-133.946 49.025 21.789-32.381 16.191a24.056 24.056 0 1 0 7.167 14.3l43.767-21.884-.236-.471 56.958 25.321-124.3 55.246-124.3-55.246zm8 55.246a8 8 0 1 1 -8-8 8.009 8.009 0 0 1 8 8zm64 120.146a214.446 214.446 0 0 0 -72 15.242 214.443 214.443 0 0 0 -72-15.242v-79.391l68.751 30.556a8 8 0 0 0 6.5 0l68.749-30.556zm51.1-.146 4.9-14.7 4.9 14.7z"/></g></svg>