<svg id="Capa_1" enable-background="new 0 0 512.004 512.004" height="512" viewBox="0 0 512.004 512.004" width="512" xmlns="http://www.w3.org/2000/svg"><g><path d="m304.748 81.274c-3.286 0-6.389-2.016-7.611-5.278l-20.429-54.468c-1.183-3.159-4.238-5.274-7.603-5.274h-91.254c-3.365 0-6.421 2.115-7.603 5.266l-20.429 54.476c-1.579 4.202-6.278 6.313-10.468 4.758-4.198-1.579-6.325-6.262-4.754-10.464l20.429-54.468c3.539-9.461 12.714-15.822 22.825-15.822h91.254c10.111 0 19.286 6.361 22.825 15.829l20.429 54.46c1.571 4.202-.556 8.885-4.754 10.464-.945.35-1.905.521-2.857.521z" fill="#966a5b"/><path d="m418.526 56.889h-8.127l-16.254 33.444h-341.334l-16.254-33.444h-8.127c-2.849 0-5.584.489-8.125 1.387l-6.367 22.994v252.349c0 13.465 10.916 24.381 24.381 24.381h380.206l23.001-8.54c.898-2.541 1.379-5.278 1.379-8.127v-260.063c.001-13.465-10.914-24.381-24.379-24.381z" fill="#966a5b"/><path d="m69.065 349.46c-26.93 0-48.762-21.831-48.762-48.762v-242.427c-9.448 3.358-16.254 12.399-16.254 22.999v260.064c0 13.465 10.916 24.381 24.381 24.381h390.095c10.6 0 19.643-6.806 23.001-16.254h-372.461z" fill="#785353"/><path d="m36.557 56.889v105.651c0 40.395 32.747 73.143 73.143 73.143h227.556c40.396 0 73.143-32.748 73.143-73.143v-105.651h-16.254l-7.16 14.111h-323.332l-10.842-14.111z" fill="#d19a6e"/><path d="m337.256 219.429h-227.556c-31.419 0-56.889-25.47-56.889-56.889v-105.651h341.333v105.651c.001 31.419-25.469 56.889-56.888 56.889z" fill="#e2a975"/><path d="m255.986 178.794h-56.889c-4.488 0-8.127-3.639-8.127-8.127v-8.127c0-4.488 3.639-8.127 8.127-8.127h56.889c4.488 0 8.127 3.639 8.127 8.127v8.127c0 4.488-3.639 8.127-8.127 8.127z" fill="#eceaec"/><path d="m207.224 170.667c-4.489 0-8.127-3.639-8.127-8.127v-8.127h-8.127c-4.489 0-8.127 3.638-8.127 8.127v16.254c0 4.488 3.638 8.127 8.127 8.127h65.016c4.489 0 8.127-3.639 8.127-8.127v-8.127z" fill="#dad8db"/><path d="m380.303 365.879h16.273v53.226h-16.273z" fill="#b6b1b7" transform="matrix(.707 -.707 .707 .707 -163.762 389.597)"/><path d="m402.171 308.575c0 16.469-4.077 31.986-11.278 45.597-16.377 30.956-48.909 44.516-86.368 44.516-53.928 0-89.715-36.184-89.715-90.113 0-37.466 13.17-70.003 44.135-86.377 13.606-7.195 29.117-11.269 45.58-11.269 53.929 0 97.646 43.718 97.646 97.646z" fill="#dad8db"/><path d="m378.366 342.683c6.771-14.544 9.367-31.413 6.175-49.133-5.901-32.751-32.244-59.093-64.996-64.991-17.718-3.191-34.585-.595-49.127 6.176-7.531 3.506-15.507-4.867-11.642-12.221l.169-.316c-33.794 17.901-55.886 55.086-51.515 96.89 4.724 45.184 41.394 81.856 86.578 86.582 41.806 4.373 78.984-17.703 96.886-51.498-.082.043-.226.109-.307.152-7.354 3.865-15.728-4.11-12.221-11.641z" fill="#c8c5c9"/><circle cx="304.525" cy="308.575" fill="#fff" r="65.097"/><path d="m426.005 407.039c-6.356-6.355-16.66-6.355-23.015 0l4.951 15.79 20.2 15.437 9.951-19.142z" fill="#dad8db"/><path d="m402.989 407.039c-6.356 6.356-6.356 16.66 0 23.015l12.087 12.086h23.015z" fill="#c8c5c9"/><path d="m317.917 331.748c-17.994-4.046-32.518-18.571-36.564-36.564-.832-3.7-1.229-7.34-1.239-10.887-.021-7.659-9.671-11.458-14.339-5.386-8.357 10.871-12.234 25.358-8.855 40.734 3.962 18.026 18.511 32.575 36.536 36.536 15.375 3.379 29.862-.498 40.734-8.855 6.072-4.668 2.273-14.318-5.386-14.339-3.546-.01-7.186-.407-10.887-1.239z" fill="#f5ebcd"/><path d="m503.188 484.222-65.097-65.097-11.507 11.508 56.552 68.316 20.052 8.289c6.355-6.356 6.355-16.661 0-23.016z" fill="#966a5b"/><path d="m415.076 442.14 65.099 65.1c6.355 6.353 16.658 6.353 23.012-.002l-76.604-76.605z" fill="#785353"/></g></svg>